<?xml version="1.0" encoding="utf-8"?>
<!-- Generator: Adobe Illustrator 25.0.1, SVG Export Plug-In . SVG Version: 6.00 Build 0)  -->
<svg version="1.1" id="Layer_1" xmlns="http://www.w3.org/2000/svg" xmlns:xlink="http://www.w3.org/1999/xlink" x="0px" y="0px"
	 viewBox="0 0 303.1 64.1" style="enable-background:new 0 0 303.1 64.1;" xml:space="preserve">
<style type="text/css">
	.st0{fill:#192A40;}
</style>
<g id="StepbackIcon" transform="translate(0 -0.018)">
	<path id="Path_234" class="st0" d="M0,17.2c0.2-0.9,0.3-1.9,0.5-2.8C2.2,6.9,8.3,1.2,16,0.1c8.2-1,16,3.6,19.2,11.2
		c0.2,0.5,0.4,1,0.7,1.6c1.6-1.1,2.8-2.6,3.7-4.3c0.6-1,0.2-2.4-0.8-2.9c-0.1-0.1-0.3-0.1-0.5-0.2C37,5,35.6,4.8,34.2,4.7
		c-1.1,0-2-0.6-2.5-1.5c3.4-0.4,6.6-0.6,9.7,0.9c1.5,0.5,2.2,2.2,1.7,3.7C43,8,43,8.1,42.9,8.3c-0.8,1.6-1.9,3-3.1,4.2
		c-4.6,4.3-10.1,7-15.8,9.4c-4.5,1.9-9.2,3.3-14,4.3c-0.4,0.1-0.7,0.2-1,0.5h1.9c0,0.1,0,0.1,0,0.2c-1.6,0.5-3.2,0.9-4.9,1.4
		c0,0.3,0.1,0.5,0.3,0.7c2,2.3,4.7,3.9,7.6,4.8c2.8,0.8,4.8,0.3,6.5-2.2c0.9-1.4,2.2-1.5,3.7-1.6c-0.9,1.3-1.8,2.6-2.7,3.9
		c0,0.1,0.1,0.2,0.1,0.3c1.5-0.5,3-1.1,4.4-1.7c2.2-1.2,4.3-2.6,5.4-5c0.1-0.2,0.4-0.3,0.7-0.4c0.9-0.4,1.8-0.8,2.7-1
		c-2.3,5-6.6,8.7-11.9,10v5.3c1.2,0.7,2.1,1.2,2.9,1.6c0.4,0.3,0.8,0.4,1.3,0.5c1.1-0.1,2.2,0.5,2.7,1.5c0.3,0.4,0.7,0.6,1.1,0.7
		c1.1,0.2,2,1.1,2.2,2.2c0.2,2.1,0.5,4.3,0.6,6.4c0.2,1.9-0.3,3.9-1.3,5.6c-0.4,0.8-0.6,1.6-0.6,2.5c0,1-0.7,1.8-1.6,1.8
		c-0.1,0-0.2,0-0.3,0c-3.3,0-6.7,0-10,0c-1.1,0-2-0.9-2-1.9c0-0.1,0-0.2,0-0.3c0-1.1-0.3-2.2-1-3c-1.5-2-1.5-4.8,0-6.8
		c0.3-0.4,0.5-0.9,0.5-1.5c0-4.6,0-9.3,0-14c-1-0.2-2.3-0.3-3.5-0.6C6.5,34,1.1,27.8,0.2,20.3c-0.1-0.4-0.1-0.7-0.2-1.1V17.2z
		 M25.7,11.5c-1.7,0.7-3.4,1.2-5.1,1.7c-1.8,0.3-3.7,0.5-5.5,0.5C11.6,13.9,8,14,4.5,14.2c-1.7,0.1-1.9,0.4-2.1,2
		c-0.4,3.2,0.1,6.4,1.5,9.2c0.3,0.7,0.7,1,1.5,0.8c4.4-0.8,8.5-2.6,12.1-5.3c2.6-2,5.1-4.1,7.7-6.2c0.6-0.5,1.3-1,2-1.6
		C26.5,12.5,26,11.9,25.7,11.5z M24,9.7c-2.7-2.4-5.8-4.2-9.2-5.4C12.6,3.4,10,4,8.3,5.6c-2.1,1.8-3.8,4-4.8,6.6
		c5.1-0.2,9.9-0.4,14.8-0.7C20.3,11.4,22.3,10.8,24,9.7L24,9.7z M31.5,53.4c-0.3,0.6-0.5,1.2-0.9,1.7c-0.8,1.3-2.5,1.6-3.7,0.9
		c-0.2-0.1-0.4-0.3-0.5-0.4c-1.2-1.3-2.3-1.3-3.5-0.1c-0.4,0.4-0.9,0.8-1.3,1.1s-0.9,0.9-1.5,0.1c-0.5-0.7-0.1-1,0.4-1.5
		c1.4-1.4,2.7-2.9,4-4.5c0.3-0.4,0.3-1.1,0.4-1.7c-0.6,0.1-1.1,0.2-1.7,0.5c-1.5,1-2.9,2.1-4.4,3.3c-1.6,1.2-1.8,3.5-0.6,5.1
		l0.1,0.1c0.9,0.9,1.3,2.2,1.2,3.5c-0.1,1,0.4,1.2,1.3,1.2c2.7,0,5.4,0,8.2,0c1,0,1.3-0.4,1.3-1.3c0-0.8,0.2-1.7,0.6-2.4
		C31.7,57.1,32,55.2,31.5,53.4z M19.2,49.7c0.1,0.1,0.2,0.2,0.4,0.3c0.4-0.6,1.3-1.3,1.3-1.9c0.2-3.5,0.1-7,0.1-10.5
		c-0.1-0.5-0.3-0.9-0.8-1.1c-0.7-0.2-1,0.3-1,1C19.2,41.6,19.2,45.6,19.2,49.7z M25.5,7.8c1-1.3,0.7-3.2-0.7-4.2
		c-0.3-0.2-0.6-0.4-1-0.5c-1.8-0.5-3.6-0.8-5.4-1c-0.8-0.1-1.5,0-2.3,0.1C19.3,4,22.3,5.9,25.5,7.8z M28.3,14.8
		c-2.7,2.3-5.4,4.5-8,6.6c0.1,0.1,0.1,0.2,0.2,0.3c3-1.5,6-2.9,9.1-4.5C29.1,16.4,28.8,15.7,28.3,14.8L28.3,14.8z M28.7,11.7
		c0.9-0.8,1.7-1.5,2.4-2.2c0.2-0.2,0.2-0.5,0.1-0.8c-0.9-1.1-1.9-2.1-2.9-3.2c-0.2,1.1-0.6,2.1-1,3.2c-0.5,0.6-0.3,1.5,0.3,2l0,0
		C28.1,11,28.4,11.3,28.7,11.7L28.7,11.7z M27.5,53.6c0.2,0.3,0.5,0.8,0.7,0.8c0.4,0,0.8-0.2,1-0.5c0.7-1.8,1.3-3.6,1.9-5.4
		c0-0.4-0.1-0.7-0.4-1c-0.3-0.1-0.9,0-1,0.3C28.9,49.7,28.2,51.6,27.5,53.6z M31.3,16c3.1-1.3,3.4-2.6,1.4-5
		c-0.3,0.2-0.6,0.4-0.8,0.7c-0.5,0.4-1,0.9-1.5,1.3c-0.2,0.3-0.3,0.6-0.2,0.9C30.5,14.7,30.9,15.3,31.3,16z M22.7,47.3
		c1.2-0.1,2-1.1,1.9-2.3c0-0.1,0-0.2-0.1-0.4c0-0.4-0.5-0.7-0.8-1.1c-0.3,0.3-0.9,0.6-1,0.9C22.7,45.4,22.6,46.4,22.7,47.3z
		 M27.1,49.4c0.4-0.9,0.7-1.9,1-2.9c0.1-0.4-0.3-0.8-0.4-1.2c-0.4,0.2-0.9,0.3-1.1,0.6C25.5,47.1,26.7,48,27.1,49.4L27.1,49.4z"/>
	<path id="Path_235" class="st0" d="M28.4,21.6c-0.8,1.6-1.6,3.1-2.4,4.5c0.1,0.1,0.1,0.2,0.2,0.3c1.6-0.7,3.1-1.4,4.6-2.1
		c0.2-0.2,0.3-0.4,0.3-0.7c0-0.6-0.1-1.2-0.2-1.8c-0.3-1.7-0.3-1.7,1.5-2.3c0.2,1.2,0.5,2.3,0.7,3.5c0.2,0,0.3,0,0.5,0
		c0.2-1.2,0.5-2.4,0.7-3.6c0.2-1.6,0.3-1.8,2.1-2.5v4.3c2.2-1.3,4.3-2.6,5.6-4.9c0.6-1.1,0.1-2-1-2.6c0.6-0.5,0.6-1.6,1.8-1.3
		c1.5,0.4,2.5,1.5,2.2,2.6c-0.3,1-0.8,2-1.4,2.8c-2.4,2.5-5.3,4.5-8.4,5.9c-6.3,3.2-13.1,5.3-20,6.4c-0.2,0-0.3,0-0.5,0
		c2.5-0.8,4.9-1.5,7.2-2.2c0.6-0.3,1.1-0.7,1.5-1.3c0.4-0.6,0.7-1.2,1-1.9C25,23,26.5,22.2,28.4,21.6z"/>
</g>
<g>
	<path class="st0" d="M58.9,23.8h-3.5v-3h10.2v3h-3.5v18h-3.3v-18H58.9z"/>
	<path class="st0" d="M67.2,20.8h3.3v8.5H74v-8.5h3.3v21H74v-9.4h-3.5v9.4h-3.3V20.8z"/>
	<path class="st0" d="M79.8,20.8h9v3h-5.7v5.5h4.5v3h-4.5v6.4h5.7v3h-9V20.8z"/>
	<path class="st0" d="M95,36.8v-1.2h3.1V37c0,1.5,0.7,2,1.7,2s1.7-0.5,1.7-2.1c0-1.7-0.7-2.8-2.8-4.7c-2.8-2.4-3.7-4.1-3.7-6.5
		c0-3.3,1.7-5.2,4.9-5.2s4.8,1.9,4.8,5.3v0.9h-3.1v-1.1c0-1.5-0.6-2.1-1.7-2.1s-1.6,0.6-1.6,2c0,1.5,0.7,2.6,2.8,4.5
		c2.8,2.4,3.6,4.1,3.6,6.7c0,3.4-1.7,5.3-5,5.3C96.6,42,95,40.1,95,36.8z"/>
	<path class="st0" d="M109.3,23.8h-3.5v-3H116v3h-3.5v18h-3.3v-18H109.3z"/>
	<path class="st0" d="M117.6,20.8h9v3h-5.7v5.5h4.5v3h-4.5v6.4h5.7v3h-9V20.8z"/>
	<path class="st0" d="M128.5,20.8h4.9c3.3,0,4.9,1.8,4.9,5.2v2c0,3.4-1.6,5.2-4.9,5.2h-1.6v8.5h-3.3L128.5,20.8L128.5,20.8z
		 M133.4,30.2c1,0,1.6-0.5,1.6-2v-2.5c0-1.5-0.6-2-1.6-2h-1.6v6.4h1.6V30.2z"/>
	<path class="st0" d="M140.1,20.8h5c3.4,0,4.9,1.6,4.9,4.8v0.8c0,2.2-0.7,3.5-2.1,4.1v0.1c1.8,0.6,2.5,2.2,2.5,4.4v1.8
		c0,3.2-1.7,5-5,5h-5.2L140.1,20.8L140.1,20.8z M144.7,29.3c1.2,0,2-0.5,2-2.2v-1.2c0-1.5-0.5-2.2-1.7-2.2h-1.6v5.5h1.3V29.3z
		 M145.3,38.8c1.1,0,1.7-0.5,1.7-2.1v-1.8c0-2-0.6-2.5-2.1-2.5h-1.5v6.4C143.4,38.8,145.3,38.8,145.3,38.8z"/>
	<path class="st0" d="M154.7,20.8h4.5l3.4,21h-3.3l-0.6-4.2v0.1H155l-0.6,4.1h-3.1L154.7,20.8z M158.3,34.8l-1.5-10.4h-0.1
		l-1.4,10.4H158.3z"/>
	<path class="st0" d="M164,36.9V25.6c0-3.2,1.7-5.2,4.9-5.2s4.9,1.9,4.9,5.2v2.2h-3.1v-2.4c0-1.4-0.7-1.9-1.6-1.9s-1.7,0.6-1.7,1.9
		v11.7c0,1.4,0.7,1.9,1.7,1.9s1.6-0.5,1.6-1.9v-3.2h3.1v3c0,3.2-1.7,5.2-4.9,5.2C165.6,42,164,40.1,164,36.9z"/>
	<path class="st0" d="M175.7,20.8h3.3v8.8l4.2-8.8h3.3l-3.9,7.7l4,13.3h-3.5l-2.8-9.4l-1.3,2.7v6.7h-3.3V20.8z"/>
	<path class="st0" d="M192.9,20.8h8.7v3h-5.4v5.8h4.3v3h-4.3v9.1h-3.3V20.8z"/>
	<path class="st0" d="M202.9,36.8v-11c0-3.4,1.8-5.3,5-5.3s5,1.9,5,5.3v11c0,3.4-1.8,5.3-5,5.3S202.9,40.1,202.9,36.8z M209.7,37
		V25.5c0-1.5-0.7-2.1-1.7-2.1s-1.7,0.6-1.7,2.1V37c0,1.5,0.7,2.1,1.7,2.1S209.7,38.5,209.7,37z"/>
	<path class="st0" d="M215.1,36.8v-16h3.3V37c0,1.5,0.6,2,1.7,2s1.7-0.5,1.7-2V20.8h3.2v16c0,3.4-1.7,5.3-4.9,5.3
		C216.7,42,215.1,40.1,215.1,36.8z"/>
	<path class="st0" d="M227.2,20.8h4.1l3.2,12.6h0.1V20.8h2.9v21h-3.4l-4-15.3H230v15.3h-2.9L227.2,20.8L227.2,20.8z"/>
	<path class="st0" d="M240.1,20.8h5c3.3,0,4.9,1.8,4.9,5.2v10.6c0,3.4-1.6,5.2-4.9,5.2h-5V20.8z M245,38.8c1,0,1.7-0.5,1.7-2v-11
		c0-1.5-0.6-2-1.7-2h-1.7v15H245z"/>
	<path class="st0" d="M254.7,20.8h4.5l3.4,21h-3.3l-0.6-4.2v0.1H255l-0.6,4.1h-3.1L254.7,20.8z M258.3,34.8l-1.5-10.4h-0.1
		l-1.4,10.4H258.3z"/>
	<path class="st0" d="M265.4,23.8H262v-3h10.2v3h-3.5v18h-3.3L265.4,23.8L265.4,23.8z"/>
	<path class="st0" d="M273.7,20.8h3.3v21h-3.3V20.8z"/>
	<path class="st0" d="M279.3,36.8v-11c0-3.4,1.8-5.3,5-5.3s5,1.9,5,5.3v11c0,3.4-1.8,5.3-5,5.3S279.3,40.1,279.3,36.8z M286,37V25.5
		c0-1.5-0.7-2.1-1.7-2.1s-1.7,0.6-1.7,2.1V37c0,1.5,0.7,2.1,1.7,2.1S286,38.5,286,37z"/>
	<path class="st0" d="M291.5,20.8h4.1l3.2,12.6h0.1V20.8h2.9v21h-3.4l-4-15.3h-0.1v15.3h-2.9L291.5,20.8L291.5,20.8z"/>
</g>
</svg>
